<svg xmlns="http://www.w3.org/2000/svg" viewBox="0 0 178.45 65.37"><g data-name="Слой 2"><g data-name="Слой 1"><path d="M36.72 43.73C36.72 56.61 28.91 65 15.48 65c-1.78 0-5.75-.14-8.22-.14-2.74 0-5.62 0-7.26.14v-1.27c4-.14 4.8-.82 4.8-5.07v-29c0-4.25-.83-4.93-4.8-5.07v-1.27c1.37.13 3.56.13 5.76.13h1.37c2.74 0 6.57-.13 8.9-.13 13.84.13 20.69 7.39 20.69 20.41zM10 29.48v29.45C10 63 10.83 64 14.39 64c12.88 0 16.3-7.12 16.3-20 0-13.15-4.11-19.59-16.3-19.59-3.56.14-4.39 1.1-4.39 5.07zm68.86-5.34c-4 .14-4.8 1.37-4.8 5.62v17.67c0 5.48-.68 9.45-2.46 12.46-1.92 3.29-5.9 5.48-10.83 5.48-3.7 0-7.26-.82-9.87-3.15-3.42-3.29-4.38-6.57-4.38-14.66V29.21c0-4.25-.69-4.93-4.8-5.07v-1.23c1.65.13 4.52.13 7.54.13 2.74 0 5.62 0 7.54-.13v1.23c-4 .14-4.8.82-4.8 5.07v19.45c0 8.08 1 14.66 9.32 14.66 8.9 0 11.23-6.44 11.23-15.21V29.89c0-4.24-1.37-5.48-5.34-5.61V23c1.37.14 4 .14 6 .14s4.11 0 5.48-.14v1.1zm24.89 19.18c9.32 1.24 12.06 5.89 12.06 10.55 0 6.71-5.34 11.37-14.11 11.37-1.79 0-5.35-.13-10.14-.13-2.75 0-5.62 0-7.27.13V64c4-.14 4.8-.82 4.8-5.07v-29c0-4.25-.82-4.93-4.8-5.07V23.6c1.65.14 4.66.14 7.13.14 3.7 0 7.53-.14 8.9-.14 8.23 0 12.47 3.83 12.47 9.31-.13 4.25-2.46 8.36-9.04 10.41zM94.43 29.9v13.29h4c7 0 8.63-4.52 8.63-9.59 0-5.76-2.33-8.77-8.22-8.77-3.72 0-4.41 1.1-4.41 5.07zm15.35 23.84c0-6-3-9.46-10.55-9.46H94.3v14.93c0 4.11.82 4.94 4.38 4.94 7.81-.15 11.1-3.84 11.1-10.41zm68.67-29.98c-4 .14-4.79.82-4.79 5.07V58c0 4.25.82 4.93 4.79 5.07v1.23c-1.78-.14-4.79-.14-7.54-.14-3 0-5.89 0-7.53.14v-1.22c4-.14 4.79-.82 4.79-5.07V28.83c0-4.25-.82-4.93-4.79-5.07v-1.23c1.64.14 4.52.14 7.53.14 2.75 0 5.62 0 7.54-.14zm-23.92 35.32c1.23 3 2.88 3.7 4.11 3.7V64c-1.64-.14-4.11-.14-6.3-.14-3 0-5.9 0-7.54.14v-1.22c2.88-.14 4.11-.55 4.11-2.2a8.85 8.85 0 00-.68-2.74l-3.57-9.58h-14.25l-2.41 6.3a13.45 13.45 0 00-1.24 4.79c0 2.6 1.78 3.43 5.07 3.56v1.24c-2.19-.14-4.66-.14-6.85-.14a39 39 0 00-4.38.14v-1.24c1.5-.41 3.29-1.64 4.66-5.07l13.84-35.61h.9zm-17-29.59L130.82 47h13.3z" fill="#272525"/><text transform="translate(.47 12.81)" font-size="15" font-family="PlayfairDisplay-Regular,Playfair Display">VI<tspan x="14.54" y="0" letter-spacing="-.03em">P</tspan><tspan x="22.93" y="0"> dati</tspan><tspan x="52.56" y="0" letter-spacing="-.01em">n</tspan><tspan x="61.36" y="0">g in</tspan></text></g></g></svg>